<svg id="Layer_1" data-name="Layer 1" xmlns="http://www.w3.org/2000/svg" viewBox="0 0 939.66 446.1"><defs><style>.cls-1,.cls-2,.cls-3{fill:none;stroke-miterlimit:10;}.cls-1{stroke:#f29bc1;stroke-width:3px;}.cls-2,.cls-3{stroke:#ec008c;}.cls-2{stroke-linecap:round;stroke-width:6px;}.cls-4{fill:#fff200;}</style></defs><title>board</title><path class="cls-1" d="M655.68,419.5H56.5a4,4,0,0,1-4-4V61.5a4,4,0,0,1,4-4h850a4,4,0,0,1,4,4v354a4,4,0,0,1-4,4h-190" transform="translate(-10.67 -13.23)"/><path class="cls-2" d="M655.68,419.5H56.5a4,4,0,0,1-4-4V61.5a4,4,0,0,1,4-4h850a4,4,0,0,1,4,4v354a4,4,0,0,1-4,4h-190" transform="translate(-10.67 -13.23)"/><g id="inner-line"><path class="cls-1" d="M655.68,419.5H56.5a4,4,0,0,1-4-4V61.5a4,4,0,0,1,4-4h850a4,4,0,0,1,4,4v354a4,4,0,0,1-4,4h-190" transform="translate(-10.67 -13.23)"/><path class="cls-3" d="M655.68,419.5H56.5a4,4,0,0,1-4-4V61.5a4,4,0,0,1,4-4h850a4,4,0,0,1,4,4v354a4,4,0,0,1-4,4h-190" transform="translate(-10.67 -13.23)"/></g><circle class="cls-4" cx="933.33" cy="398.77" r="6.33"/><circle class="cls-4" cx="933.33" cy="361.29" r="6.33"/><circle class="cls-4" cx="933.33" cy="323.82" r="6.33"/><circle class="cls-4" cx="933.33" cy="286.34" r="6.33"/><circle class="cls-4" cx="933.33" cy="248.86" r="6.33"/><circle class="cls-4" cx="933.33" cy="211.38" r="6.33"/><circle class="cls-4" cx="933.33" cy="173.9" r="6.33"/><circle class="cls-4" cx="933.33" cy="136.43" r="6.33"/><circle class="cls-4" cx="933.33" cy="98.95" r="6.33"/><circle class="cls-4" cx="933.33" cy="61.47" r="6.33"/><circle class="cls-4" cx="926.74" cy="25.1" r="6.33"/><circle class="cls-4" cx="896.02" cy="6.49" r="6.33"/><circle class="cls-4" cx="858.4" cy="6.33" r="6.33"/><circle class="cls-4" cx="820.93" cy="6.33" r="6.33"/><circle class="cls-4" cx="783.45" cy="6.33" r="6.33"/><circle class="cls-4" cx="745.97" cy="6.33" r="6.33"/><circle class="cls-4" cx="708.49" cy="6.33" r="6.33"/><circle class="cls-4" cx="671.01" cy="6.33" r="6.33"/><circle class="cls-4" cx="633.53" cy="6.33" r="6.33"/><circle class="cls-4" cx="596.06" cy="6.33" r="6.33"/><circle class="cls-4" cx="558.58" cy="6.33" r="6.33"/><circle class="cls-4" cx="521.1" cy="6.33" r="6.33"/><circle class="cls-4" cx="483.62" cy="6.33" r="6.33"/><circle class="cls-4" cx="446.14" cy="6.33" r="6.33"/><circle class="cls-4" cx="408.67" cy="6.33" r="6.33"/><circle class="cls-4" cx="371.19" cy="6.33" r="6.33"/><circle class="cls-4" cx="333.71" cy="6.33" r="6.33"/><circle class="cls-4" cx="296.23" cy="6.33" r="6.33"/><circle class="cls-4" cx="258.75" cy="6.33" r="6.33"/><circle class="cls-4" cx="221.27" cy="6.33" r="6.33"/><circle class="cls-4" cx="183.8" cy="6.33" r="6.33"/><circle class="cls-4" cx="146.32" cy="6.33" r="6.33"/><circle class="cls-4" cx="108.84" cy="6.33" r="6.33"/><circle class="cls-4" cx="71.36" cy="6.33" r="6.33"/><circle class="cls-4" cx="33.86" cy="8.61" r="6.33"/><circle class="cls-4" cx="8.61" cy="33.86" r="6.33"/><circle class="cls-4" cx="6.33" cy="71.36" r="6.33"/><circle class="cls-4" cx="6.33" cy="108.84" r="6.33"/><circle class="cls-4" cx="6.33" cy="146.32" r="6.33"/><circle class="cls-4" cx="6.33" cy="183.8" r="6.33"/><circle class="cls-4" cx="6.33" cy="221.27" r="6.33"/><circle class="cls-4" cx="6.33" cy="258.75" r="6.33"/><circle class="cls-4" cx="6.33" cy="296.23" r="6.33"/><circle class="cls-4" cx="6.33" cy="333.71" r="6.33"/><circle class="cls-4" cx="6.33" cy="371.19" r="6.33"/><circle class="cls-4" cx="7.58" cy="408.83" r="6.33"/><circle class="cls-4" cx="30.58" cy="436.18" r="6.33"/><circle class="cls-4" cx="67.81" cy="439.77" r="6.33"/><circle class="cls-4" cx="105.28" cy="439.77" r="6.33"/><circle class="cls-4" cx="142.76" cy="439.77" r="6.33"/><circle class="cls-4" cx="180.24" cy="439.77" r="6.33"/><circle class="cls-4" cx="217.72" cy="439.77" r="6.33"/><circle class="cls-4" cx="255.2" cy="439.77" r="6.33"/><circle class="cls-4" cx="292.68" cy="439.77" r="6.33"/><circle class="cls-4" cx="330.15" cy="439.77" r="6.33"/><circle class="cls-4" cx="367.63" cy="439.77" r="6.33"/><circle class="cls-4" cx="405.11" cy="439.77" r="6.33"/><circle class="cls-4" cx="442.59" cy="439.77" r="6.33"/><circle class="cls-4" cx="480.07" cy="439.77" r="6.33"/><circle class="cls-4" cx="517.55" cy="439.77" r="6.33"/><circle class="cls-4" cx="555.02" cy="439.77" r="6.33"/><circle class="cls-4" cx="592.5" cy="439.77" r="6.33"/><circle class="cls-4" cx="629.98" cy="439.77" r="6.33"/><circle class="cls-4" cx="667.46" cy="439.77" r="6.33"/><circle class="cls-4" cx="704.94" cy="439.77" r="6.33"/><circle class="cls-4" cx="742.42" cy="439.77" r="6.33"/><circle class="cls-4" cx="779.89" cy="439.77" r="6.33"/><circle class="cls-4" cx="817.37" cy="439.77" r="6.33"/><circle class="cls-4" cx="854.85" cy="439.77" r="6.33"/><circle class="cls-4" cx="892.33" cy="439.77" r="6.33"/></svg>